<svg height="400" viewBox="0 0 400 400" width="400" xmlns="http://www.w3.org/2000/svg"><g fill="none" fill-rule="evenodd"><circle cx="200" cy="200" fill="#000" r="200"/><g fill="#fff" transform="translate(90 80)"><path d="m123.976584 145.793841c0-5.18161 5.481944-8.463306 10.016627-6.137318l.314755.171423.367271.228035c1.792965 1.192542 2.9275 3.157464 3.062313 5.3059l.013532.43196v87.317892c0 3.803513-3.082719 6.888267-6.886231 6.888267-3.676728 0-6.681818-2.882532-6.878072-6.510399l-.010195-.377868zm27.551031 15.906337c0-5.18161 5.479999-8.46525 10.014594-6.13745l.314752.171556c2.006438 1.157486 3.287812 3.24024 3.431619 5.533596l.013532.432298v71.411555c0 3.803513-3.082718 6.888267-6.888266 6.888267-3.676729 0-6.679915-2.882532-6.876043-6.510399l-.010188-.377868zm-51.6589461 14.198015c4.5935351-2.651056 10.3334181.661746 10.3334181 5.963858 0 2.314974-1.163348 4.465815-3.077542 5.73786l-.367609.228035-87.490965 50.512599c-1.8162382 1.046576-4.0111988 1.211504-5.9618224.443879-5.24727547-2.061501-5.89352953-9.157678-1.2565024-12.170197l.3320942-.203435zm0-31.812675c4.5935351-2.653092 10.3334181.661746 10.3334181 5.963858 0 2.31689-1.163348 4.467844-3.077542 5.738198l-.367609.227697-96.425554 55.670145c-4.48714683 2.592795-10.0710714-.514154-10.32256842-5.605477l-.00881358-.358381.01353228-.432298c.13481926-2.150021 1.26945321-4.114943 3.06400962-5.3059l.36760954-.227697zm34.4392971-32.091626c1.996692-1.154874 4.43004-1.227054 6.481313-.218217l.404918.21618 75.764826 43.742429c2.129804 1.231865 3.443115 3.506235 3.443115 5.965894 0 5.18161-5.481944 8.463305-10.016627 6.137318l-.314755-.171423-75.76279-43.742428c-4.591499-2.651057-4.591499-9.278697 0-11.929753zm-123.976584 4.045813 44.9518962 25.952659c4.5914991 2.651057 4.5914991 9.276661 0 11.929754-2.1318402 1.229829-4.7564266 1.229829-6.8882667 0l-44.94986006-25.95266c-2.13184016-1.22983-3.44515144-3.5042-3.44515144-5.965895 0-5.302112 5.73988292-8.614914 10.331382-5.963858zm0-31.8126752 72.5008908 41.8589972c4.5914992 2.651056 4.5935353 9.276661 0 11.929753-2.1318401 1.22983-4.7564265 1.22983-6.8882667 0l-72.49885466-41.8589971c-2.13184016-1.2298295-3.44515144-3.5041995-3.44515144-5.9658946 0-5.3021125 5.73988292-8.6149148 10.331382-5.9638585zm151.527615 11.8605243c1.996691-1.154874 4.43004-1.2270537 6.481313-.2165389l.404918.2165389 48.213795 27.8360909c2.129804 1.229829 3.443115 3.502163 3.443115 5.963858 0 5.18161-5.481944 8.46525-10.016627 6.137451l-.314755-.171556-48.211759-27.836091c-4.593535-2.651056-4.593535-9.2786967 0-11.9297529zm-72.319674-96.0875541c3.6767286 0 6.6818178 2.88062894 6.8780718 6.50836948l.0101949.37786111v99.14380241c0 5.18161-5.481944 8.463305-10.0166266 6.135418l-.3147554-.171559c-2.0064378-1.159403-3.287812-3.240467-3.4316192-5.53192l-.0135323-.431939v-99.14380241c0-3.80351234 3.0847544-6.88623059 6.8882668-6.88623059zm120.531433 36.4387885c4.591499-2.6510563 10.331382.661746 10.331382 5.9638585 0 2.3168895-1.163348 4.4660404-3.075844 5.7378791l-.367271.2280155-96.42759 55.6721814c-4.591499 2.651056-10.329346-.663782-10.329346-5.9658948 0-2.3168895 1.161545-4.4660404 3.075526-5.7361816l.367589-.2276769zm-148.0824638-36.4387885c3.6786969 0 6.681949 2.88062894 6.8780784 6.50836948l.0101883.37786111v83.23746501c0 5.3021125-5.7398829 8.6149147-10.331382 5.9638585-2.0064378-1.1594029-3.2860083-3.2404664-3.4296033-5.5319192l-.013512-.4319393v-83.23746501c0-3.80351234 3.0827182-6.88623059 6.8862306-6.88623059zm147.4227538 5.00687198c4.074158-2.35131479 9.210029-.01758217 10.178603 4.50886602l.069297.37176518c.42662 2.68576762-.764592 5.35491362-3.014307 6.83601372l-.345326.2131082-95.76788 55.2914227c-4.591499 2.6490202-10.329346-.6637821-10.329346-5.9658946 0-2.3149731 1.161545-4.4658149 3.075526-5.7361616l.367589-.2276969z"/><path d="m189.407992 171.640621c2.006438 1.159403 3.287812 3.24227 3.431619 5.533935l.013532.43196v55.505217c0 3.759794-3.014248 6.817258-6.757399 6.887048l-.130867.001219c-3.676729 0-6.681818-2.882532-6.878072-6.510399l-.010195-.377868v-55.505217c0-3.976585 3.228684-6.834182 6.780065-6.896889l.14222-.001014c1.13903.003879 2.307137.296243 3.409097.932008zm-79.205905 42.034105c0 2.314974-1.163348 4.465815-3.077542 5.736162l-.367609.227697-33.6655641 19.437007c-.9914938.572906-2.1090817.889968-3.2523501.921756l-.1907652.002652c-6.921245 0-9.4567184-8.999375-3.7638547-12.657949l.3187032-.194176 33.6655638-19.439043c1.0565131-.609743 2.1736681-.90389 3.2676801-.930849l.142559-.002047c3.607823-.012571 6.923179 2.869185 6.923179 6.89879zm106.756936-26.127767c2.004521 1.157486 3.285783 3.24024 3.429583 5.533596l.013532.432298v39.59888c0 3.759794-3.012258 6.817258-6.757331 6.887048l-.130936.001219c-3.676728 0-6.679915-2.882532-6.876042-6.510399l-.010188-.377868v-39.59888c0-3.976584 3.228684-6.835327 6.780065-6.897747l.14222-.001002c1.13903.003983 2.307137.296601 3.409097.932855zm-34.677615-10.04008-.001269.099637-.000122 55.463856.007208.267495.00566.084341c.153919 1.859131 1.690604 3.319304 3.565511 3.372747l.106481.001516c1.998563 0 3.626707-1.593082 3.68322-3.578033l.001517-.106705-.000278-55.456011-.010011-.315547-.006695-.087443c-.109781-1.139094-.745802-2.166735-1.721585-2.77483l-.103964-.062451c-2.398383-1.383723-5.381926.273285-5.521829 2.991511zm-80.723869 32.927485-.086968.048726-33.6442471 19.4266-.2234462.13615-.0764611.050696c-2.8947225 1.9712-1.5462542 6.605088 2.0122189 6.698501l.1096211.001434c.5987774 0 1.1886687-.147006 1.719829-.427994l.1215102-.067216 33.6182012-19.409913.275904-.170988.070666-.048329c.932059-.664403 1.503811-1.727926 1.542134-2.874189l.002057-.123116c0-2.769762-2.928125-4.525634-5.353577-3.286459zm108.2749-17.02117-.001269.099659v39.557519l.007208.277506.005534.074471c.153837 1.85963 1.689256 3.319187 3.563514 3.372606l.106445.001516c1.999729 0 3.626749-1.592262 3.683222-3.57799l.001516-.106748-.000123-39.549687-.010011-.313946-.006859-.089643c-.109763-1.140144-.745252-2.16741-1.718932-2.773908l-.105495-.063293c-2.397436-1.38424-5.381001.273153-5.520907 2.991998zm-202.91015365-46.494811.14252333.002041c1.09373426.027237 2.21052856.321744 3.26657332.931956l17.4008654 10.044286c4.5914991 2.653092 4.5914991 9.278697 0 11.929753-2.1318402 1.231866-4.7564266 1.231866-6.8882667 0l-17.39882926-10.044286c-2.13184016-1.22983-3.44515144-3.5042-3.44515144-5.965895 0-3.976584 3.22868414-6.835327 6.7800649-6.896888zm-3.71875604 6.897855c0 1.275789.65922046 2.457234 1.73761407 3.128171l.10566117.063322 17.39996245 10.04494c1.1401456.658824 2.5425485.658824 3.6836464-.00055 2.4219472-1.398392 2.4555853-4.863948.1012227-6.320629l-.1009012-.060343-17.40210928-10.045004c-2.45513701-1.418645-5.52509631.353787-5.52509631 3.190093zm192.68747569-73.8512024.405254.216181 20.662764 11.9297531c2.129804 1.2298295 3.443115 3.5041996 3.443115 5.9638585 0 3.9898398-3.250245 6.8543728-6.815589 6.8982788l-.139063.000279c-1.020867-.008469-2.064344-.248991-3.061975-.761107l-.314755-.171556-20.662764-11.9297533c-4.591499-2.6510562-4.591499-9.2786969 0-11.9297531 1.022539-.5898891 2.158443-.8968373 3.29896-.9208444l.155543-.0015199c1.037011.0015589 2.073749.2369533 3.02851.7061833zm-4.881179 2.9904787c-2.421796 1.398305-2.455432 4.8650919-.100965 6.320822l.100906.0603015 20.622988 11.9069012.23626.128943.06851.034083c2.379822 1.144223 5.190743-.564862 5.259786-3.2313003l.001298-.1004365c0-1.2739237-.659396-2.455821-1.73589-3.1262565l-.105471-.0632701-20.621108-11.9054832-.287116-.1533689-.085654-.0402602c-1.076301-.4838369-2.324785-.4241516-3.353544.169325zm-156.5705285-82.9555143c3.6767286 0 6.6799152 2.88062894 6.8760424 6.50836948l.0101882.37786111v67.33112751c0 3.9765844-3.2275388 6.8341817-6.7792059 6.8960295l-.1422327.0009789c-1.1391341-.0041612-2.3074949-.2968964-3.4099434-.9331499-2.0045214-1.1574866-3.2857829-3.2402409-3.4295834-5.5318993l-.0135319-.4319592v-67.33112751c0-3.75979381 3.014248-6.81526827 6.7573996-6.88501233zm0 3.20352931c-1.9992326 0-3.626731 1.5917739-3.6832209 3.57603305l-.0015165.10666823-.0002783 67.28147961.0100111.3135454.0072477.0898695c.1097395 1.1388549.7453302 2.1660492 1.7183699 2.7721701l.105537.0633162c2.4289623 1.4018213 5.4544318-.3117737 5.5252831-3.0895963l.0012682-.099657-.0004004-67.2901264-.007208-.27750573-.0051309-.07405518c-.1537797-1.8588544-1.6886297-3.31725024-3.5634821-3.37062743zm-27.55103077-3.20352931c3.67672857 0 6.67991517 2.88062894 6.87604237 6.50836948l.0101882.37786111v51.42479001c0 5.18161-5.4799993 8.4633053-10.01459355 6.1354175l-.31475231-.171559c-2.0064378-1.1574866-3.28781195-3.2402409-3.43161916-5.5318993l-.01353228-.4319592v-51.42479001c0-3.6767286 2.88062894-6.67991516 6.50836948-6.87604234zm.02815305 3.20392975-.26669381.0068075-.07405518.00553141c-1.8588544.1537797-3.31725024 1.68862967-3.37062743 3.56348208l-.00151405.10647985v51.37675741l.00921015.306738.00777027.0950471c.10974035 1.1387899.74535125 2.1655062 1.71975273 2.7718664l.08126974.0486986.2266497.1237363.06380469.0316888c2.37986395 1.1443784 5.18869361-.5631505 5.25768471-3.2293157l.0012967-.1004269-.0001222-51.38218714-.0076083-.27790617-.0050088-.0752565c-.1537797-1.8588544-1.68862971-3.31725024-3.56348212-3.37062743zm157.91330822-3.20392975c6.921245 0 9.454754 8.99937539 3.76182 12.6579495l-.318705.1941757-47.74141 27.5632477c-1.056045.6097429-2.172731.90389-3.2663.9308492l-.142501.0020464c-3.606365.0125712-6.920545-2.8691848-6.920545-6.8987903 0-2.3149731 1.161545-4.4658149 3.075526-5.7361616l.367589-.2276968 47.74141-27.56324769c.991494-.57290593 2.109082-.88814124 3.25235-.91973691zm0 3.20352931c-.601336 0-1.191093.14643979-1.720328.42625332l-.121035.06693399-47.694546 27.53569198-.2719.1685857-.073885.0510258c-.93107.6638184-1.50209 1.7269616-1.540363 2.8742291l-.002055.123229c0 2.8032803 2.996955 4.5673614 5.437157 3.2402642l.086907-.048714 47.719917-27.5511124.223847-.13655043.07612-.04991991c2.895223-1.9714802 1.547703-6.60507598-2.010232-6.69848283z" fill-opacity=".5"/></g></g></svg>