<svg xmlns="http://www.w3.org/2000/svg" width="760" height="116"><style>@media (prefers-color-scheme:dark){.a{fill:#fff}}</style><path class="a" fill="#000" d="M230.689 68.721h-15.607c-3.148 7.87-10.36 13.115-19.279 13.115-5.901 0-10.754-1.967-14.82-5.902q-5.901-6.098-5.901-14.95c0-5.902 1.967-10.886 5.902-14.82 4.065-4.066 8.918-6.033 14.82-6.033 8.917 0 16.13 5.246 19.278 13.115h15.607q-2.558-12-12.197-19.672c-6.426-5.115-13.902-7.607-22.689-7.607-10.23 0-18.754 3.41-25.573 10.099-6.82 6.688-10.23 14.95-10.23 24.918s3.41 18.36 10.23 25.049C177.05 92.72 185.574 96 195.803 96c8.787 0 16.263-2.492 22.689-7.607q9.64-7.671 12.197-19.672m52.098 25.705h14.688V27.541h-14.688v38.033c0 9.836-6.689 16.262-16.656 16.262-9.442 0-15.606-6.426-15.606-16V27.541h-14.689v42.623c0 7.738 2.36 14.033 6.95 18.754C247.509 93.639 253.673 96 261.41 96c9.18 0 16.262-3.541 21.377-10.492zm102.664 0V80.918h-16.443v-40h16.443V27.541h-16.443V7.869H354.32V27.54h-25.55V7.869h-14.688V27.54h-12.459v13.377h12.459v53.508h32.131V80.918H328.77v-40h25.55v53.508zm72.524-33.311q0 3.147-.393 5.508h-55.344c2.098 9.836 9.967 16.131 20.065 16.131 8.394 0 15.345-3.803 18.36-9.574h16q-3.736 10.23-12.983 16.525C437.516 93.902 430.303 96 422.172 96c-10.098 0-18.623-3.279-25.442-9.967-6.82-6.689-10.23-15.082-10.23-25.05s3.41-18.229 10.23-24.917 15.344-10.099 25.442-10.099c10.23 0 18.754 3.41 25.574 10.099 6.82 6.688 10.23 14.95 10.23 25.049m-15.868-6.558c-2.492-9.311-10.361-15.344-19.935-15.344s-17.311 6.033-19.803 15.344zm35.704 39.87V61.901c0-12.46 7.607-20.328 20.59-20.328V26.492c-8.393 0-15.212 3.934-20.59 11.934V27.541h-14.688v66.885zm50.656 0v-53.51h16.443V27.541h-16.443V13.508h16.443V0H513.78v27.541H502.5v13.377h11.279v53.508zm49.251 0v-13.51h-11.803V0h-14.688v94.426zm72.935-33.443c0 9.967-3.41 18.36-10.36 25.049C633.472 92.72 624.947 96 614.85 96c-10.23 0-18.755-3.279-25.574-9.967s-10.23-15.082-10.23-25.05 3.41-18.229 10.23-24.917 15.344-10.099 25.574-10.099c10.098 0 18.622 3.41 25.442 10.099 6.951 6.688 10.36 14.95 10.36 24.918m-56.525 0q0 8.852 5.902 14.95c4.065 3.935 8.918 5.902 14.82 5.902 5.901 0 10.754-1.967 14.688-5.902q5.901-6.098 5.902-14.95c0-5.902-1.968-10.886-5.902-14.82-3.934-4.066-8.787-6.033-14.688-6.033-5.902 0-10.755 1.967-14.82 6.033-3.935 3.934-5.902 8.918-5.902 14.82m92.295 33.442 16.787-49.705 16.787 49.705h15.213l24.787-66.885h-16.262l-16 48.656-16.656-48.656h-15.082L679.21 76.197l-16-48.656h-16.656l24.656 66.885z"/><path fill="#3F59B7" d="m80.5 69.45 38 21.9c.7.4.7 1.3 0 1.7l-38 21.9c-.3.2-.7.2-1 0l-38-21.9c-.7-.4-.7-1.3 0-1.7l38-21.9c.3-.2.7-.2 1 0M40 47.75v43.9c0 .4-.2.7-.5.9l-38 21.9c-.7.3-1.5-.2-1.5-.9v-43.9c0-.4.2-.7.5-.9l38-21.9c.7-.4 1.5.1 1.5.9m80-46.2v43.9c0 .4-.2.7-.5.9l-38 21.9c-.7.4-1.5-.1-1.5-.9v-43.9c0-.4.2-.7.5-.9l38-21.9c.7-.4 1.5.1 1.5.9M40.5.15l38 21.9c.7.4.7 1.3 0 1.7l-38 21.9c-.3.2-.7.2-1 0l-38-21.9c-.7-.4-.7-1.3 0-1.7l38-21.9c.3-.2.7-.2 1 0"/></svg>